<svg width="133" height="133" viewBox="0 0 133 133" fill="none" xmlns="http://www.w3.org/2000/svg">
<rect width="133" height="133" fill="#196868"/>
<path d="M74.1497 79.927C75.123 77.373 76.0214 74.8919 76.9946 72.4838C77.0695 72.2649 77.6684 72.0459 78.0428 72.0459C78.9412 71.973 79.8395 72.0459 80.6631 72.0459C84.4064 72.0459 87.5508 69.9297 88.8235 66.5C89.4973 64.8216 90.0962 63.1432 90.77 61.2459C90.0962 61.173 89.7219 61.173 89.2727 61.173C79.9893 61.173 70.7807 61.173 61.4973 61.173C57.6043 61.173 53.9358 64.0919 53.1871 67.6676C52.7379 69.9297 54.1604 71.827 56.4813 71.973C58.2032 72.1189 60 72.0459 61.7968 71.973C62.1711 71.973 62.6952 71.5351 62.8449 71.1703C63.2941 70.1486 63.5936 69.0541 64.0428 68.1054C64.1925 67.8135 64.5668 67.3757 64.8663 67.3757C67.3369 67.3027 69.8075 67.3757 72.3529 67.3757C72.2781 67.7405 72.2781 67.9595 72.2032 68.1784C70.8556 71.827 69.508 75.4027 68.1604 79.0513C67.9358 79.7811 67.4866 80 66.5882 80C62.3208 80 57.9786 80 53.7112 80C47.647 80 43.8289 75.8405 44.4278 70.0027C44.4278 69.7838 44.4278 69.6378 44.2032 69.3459C43.6791 70.6595 43.2299 71.9 42.7059 73.2135C41.9572 75.1108 41.2085 77.0811 40.5347 78.9784C40.2353 79.7811 39.8609 80.073 39.0374 80.073C36.7166 80 34.3957 80.073 31.9251 80.073C32.2246 79.2703 32.3743 78.6865 32.5989 78.1027C35.5936 70.1486 38.5882 62.3405 41.4331 54.4595C41.8823 53.3649 42.4064 53 43.6043 53C45.7005 53.073 47.8716 53 50.2674 53C48.9198 56.5757 47.7219 59.8595 46.524 63.2162C46.5989 63.2892 46.6738 63.2892 46.7486 63.3622C46.8984 63.1432 47.123 62.9243 47.2727 62.7054C51.8395 56.5027 57.8289 52.927 65.8395 53C77.2941 53.073 88.8235 53 100.278 53C100.802 53 101.251 53 102 53C101.85 53.5838 101.701 54.0946 101.551 54.5324C100.053 58.473 98.7059 62.4135 97.1337 66.2811C94.0641 73.7973 88.2994 78.3946 80.0641 79.8541C78.2674 80.1459 76.3208 79.927 74.1497 79.927Z" fill="#F44E6A"/>
</svg>
