<svg width="133" height="133" viewBox="0 0 133 133" fill="none" xmlns="http://www.w3.org/2000/svg">
<path d="M133 0H0V133H133V0Z" fill="#F44E6A"/>
<g clip-path="url(#clip0_1_6)">
<path d="M74.1497 78.927C75.123 76.373 76.0214 73.8919 76.9946 71.4838C77.0695 71.2649 77.6684 71.0459 78.0428 71.0459C78.9412 70.973 79.8396 71.0459 80.6631 71.0459C84.4064 71.0459 87.5508 68.9297 88.8235 65.5C89.4973 63.8216 90.0962 62.1432 90.77 60.2459C90.0962 60.173 89.7219 60.173 89.2727 60.173C79.9893 60.173 70.7807 60.173 61.4973 60.173C57.6043 60.173 53.9358 63.0919 53.1871 66.6676C52.7379 68.9297 54.1604 70.827 56.4813 70.973C58.2032 71.1189 60 71.0459 61.7968 70.973C62.1711 70.973 62.6952 70.5351 62.8449 70.1703C63.2941 69.1486 63.5936 68.0541 64.0428 67.1054C64.1925 66.8135 64.5668 66.3757 64.8663 66.3757C67.3369 66.3027 69.8075 66.3757 72.3529 66.3757C72.2781 66.7405 72.2781 66.9595 72.2032 67.1784C70.8556 70.827 69.508 74.4027 68.1604 78.0513C67.9358 78.7811 67.4866 79 66.5882 79C62.3208 79 57.9786 79 53.7112 79C47.647 79 43.8289 74.8405 44.4278 69.0027C44.4278 68.7838 44.4278 68.6378 44.2032 68.3459C43.6791 69.6595 43.2299 70.9 42.7059 72.2135C41.9572 74.1108 41.2085 76.0811 40.5347 77.9784C40.2353 78.7811 39.8609 79.073 39.0374 79.073C36.7165 79 34.3957 79.073 31.9251 79.073C32.2246 78.2703 32.3743 77.6865 32.5989 77.1027C35.5936 69.1486 38.5882 61.3405 41.4331 53.4595C41.8823 52.3649 42.4064 52 43.6043 52C45.7005 52.073 47.8716 52 50.2674 52C48.9198 55.5757 47.7219 58.8595 46.524 62.2162C46.5989 62.2892 46.6738 62.2892 46.7486 62.3622C46.8984 62.1432 47.123 61.9243 47.2727 61.7054C51.8395 55.5027 57.8289 51.927 65.8396 52C77.2941 52.073 88.8235 52 100.278 52C100.802 52 101.251 52 102 52C101.85 52.5838 101.7 53.0946 101.551 53.5324C100.053 57.473 98.7059 61.4135 97.1337 65.2811C94.0641 72.7973 88.2994 77.3946 80.0641 78.8541C78.2674 79.1459 76.3208 78.927 74.1497 78.927Z" fill="#196868"/>
</g>
<defs>
<clipPath id="clip0_1_6">
<rect width="71" height="28" fill="white" transform="translate(31 52)"/>
</clipPath>
</defs>
</svg>
